<svg id="Capa_1" enable-background="new 0 0 497 497" height="512" viewBox="0 0 497 497" width="512" xmlns="http://www.w3.org/2000/svg"><g><path d="m386 144.047v263.953c0 22.091-17.909 40-40 40h-275c-22.091 0-40-17.909-40-40v-368c0-22.091 17.909-40 40-40h171.197c4.547 0 8.987 1.032 13.007 2.966 3.025 1.455 126.621 125.409 128.09 128.629 1.767 3.873 2.706 8.114 2.706 12.452z" fill="#f9f8f9"/><path d="m386 144.05v17.59h-104.32c-31.45 0-57.04-25.62-57.04-57.1v-104.54h17.56c4.344 0 8.593.944 12.472 2.719 3.228 1.477 127.222 125.755 128.696 129.037 1.719 3.829 2.632 8.014 2.632 12.294z" fill="#e3e0e4"/><path d="m101 448h-30c-22.09 0-40-17.91-40-40v-368c0-22.09 17.91-40 40-40h30c-22.09 0-40 17.91-40 40v368c0 22.09 17.91 40 40 40z" fill="#e3e0e4"/><g fill="#a29aa5"><path d="m212.108 150h-123.7c-4.142 0-7.5-3.358-7.5-7.5s3.358-7.5 7.5-7.5h123.7c4.142 0 7.5 3.358 7.5 7.5s-3.358 7.5-7.5 7.5z"/><path d="m212.108 330h-123.7c-4.142 0-7.5-3.358-7.5-7.5s3.358-7.5 7.5-7.5h123.7c4.142 0 7.5 3.358 7.5 7.5s-3.358 7.5-7.5 7.5z"/><path d="m310.408 210h-224c-4.142 0-7.5-3.358-7.5-7.5s3.358-7.5 7.5-7.5h224c4.142 0 7.5 3.358 7.5 7.5s-3.358 7.5-7.5 7.5z"/><path d="m310.408 270h-224c-4.142 0-7.5-3.358-7.5-7.5s3.358-7.5 7.5-7.5h224c4.142 0 7.5 3.358 7.5 7.5s-3.358 7.5-7.5 7.5z"/><path d="m383.31 131.64h-101.63c-14.93 0-27.04-12.14-27.04-27.1v-101.82c3.24 1.46 6.23 3.52 8.79 6.09l113.81 114.05c2.55 2.56 4.61 5.54 6.07 8.78z"/></g><ellipse cx="364.489" cy="395.5" fill="#dc4955" rx="101.511" ry="101.5"/><path d="m445.57 456.57c-18.52 24.56-47.95 40.43-81.08 40.43-56.06 0-101.51-45.44-101.51-101.5 0-33.13 15.87-62.55 40.43-81.07-12.83 16.99-20.43 38.14-20.43 61.07 0 56.06 45.45 101.5 101.51 101.5 22.93 0 44.08-7.6 61.08-20.43z" fill="#c42430"/><g><path d="m403.744 434.744c-5.855 5.855-15.358 5.855-21.213 0l-18.031-18.031-18.031 18.031c-5.855 5.855-15.358 5.855-21.213 0s-5.855-15.358 0-21.213l18.031-18.031-18.031-18.031c-5.855-5.855-5.855-15.358 0-21.213s15.358-5.855 21.213 0l18.031 18.031 18.031-18.031c5.855-5.855 15.358-5.855 21.213 0s5.855 15.358 0 21.213l-18.031 18.031 18.031 18.031c5.855 5.855 5.855 15.359 0 21.213z" fill="#f9f8f9"/></g></g></svg>