<svg id="Capa_1" enable-background="new 0 0 512.04 512.04" height="512" viewBox="0 0 512.04 512.04" width="512" xmlns="http://www.w3.org/2000/svg"><g><path d="m416.99 125.02v387h-416.99v-512h292.29z" fill="#adf2ff"/><path d="m59.52 146.32h178v30h-178z" fill="#fff"/><path d="m59.52 86.32h138v30h-138z" fill="#fff"/><path d="m197.52 146.32h40v30h-40z" fill="#8797a7"/><path d="m416.99 95.02v417h-219.47v-512h124.77z" fill="#3ae7ff"/><path d="m294.73 448.4-22.11 22.11h-75.1v-75.08l22.12-22.12 63.62 11.47z" fill="#1d56bf"/><path d="m294.73 448.4-22.11 22.11h-75.09l85.73-85.73z" fill="#313ca2"/><path d="m197.52 146.32h40v30h-40z" fill="#adf2ff"/><g><path d="m416.99 95.02h-94.7v-95z" fill="#adf2ff"/></g><path d="m446.6 296.53-151.87 151.87-37.54-37.54-37.55-37.55 151.87-151.87 64.2 10.89v.01z" fill="#ffb800"/><path d="m446.6 296.53-151.87 151.87-37.54-37.54 178.52-178.52z" fill="#ff9a09"/><path d="m512.04 231.09-65.44 65.44-37.54-37.54-37.55-37.55 65.43-65.43 37.56 37.54z" fill="#ff4b7f"/><path d="m414.277 218.495h92.546v53.09h-92.546z" fill="#ff229a" transform="matrix(.707 -.707 .707 .707 -38.378 397.428)"/></g></svg>