<svg id="Capa_1" enable-background="new 0 0 512 512" height="512" viewBox="0 0 512 512" width="512" xmlns="http://www.w3.org/2000/svg"><g><g><g><path d="m238.5 104-10.001 204 10.001 204h50.333l67.094-86.573 86.573-67.094v-254.333z" fill="#ffcd75"/><path d="m34.5 104h204v408h-204z" fill="#ffdc9e"/></g><path d="m288.833 512v-153.667h153.667z" fill="#ffebba"/><g fill="#fdae02"><path d="m177.125 300.375h-65.626v-30h77.691z"/><path d="m111.499 336h95.501v30h-95.501z"/></g></g><g><path d="m344.86 35.06-21.213 21.212 42.02 55.728 55.561 41.852 21.212-21.212-44.44-55.954z" fill="#f7f0eb"/><path d="m457.29 117.79c13.033-13.032 20.21-30.359 20.21-48.79s-7.177-35.758-20.21-48.79c-13.032-13.033-30.359-20.21-48.79-20.21s-35.758 7.177-48.79 20.21l-14.85 14.85 97.58 97.58z" fill="#fdae02"/><g><path d="m421.228 153.852-97.581-97.58-85.147 85.147-10.001 61.292 10.001 73.289 36.289 24.292z" fill="#4477bf"/><path d="m177.208 202.711 61.292 73.289v-134.581z" fill="#5698e0"/></g><g><path d="m274.789 300.292-36.289-36.289-10.001 21.381 10.001 14.991h36.206z" fill="#f7f0eb"/><path d="m177.208 202.711-.083.083v97.581h61.375v-36.372z" fill="#fffbf5"/></g></g></g></svg>