<svg id="Flat" height="512" viewBox="0 0 512 512" width="512" xmlns="http://www.w3.org/2000/svg"><g><path d="m152 376h-48v56a40 40 0 0 0 40 40h8z" fill="#ffd4cf"/><path d="m400 376h8a0 0 0 0 1 0 0v96a0 0 0 0 1 0 0h-48a0 0 0 0 1 0 0v-56a40 40 0 0 1 40-40z" fill="#ffd4cf" transform="matrix(-1 0 0 -1 768 848)"/><path d="m408 354.1407v-11.8973a30.2086 30.2086 0 0 0 -30-30.2434l-18 .2434v-8.2434h-208v8.2434l-18-.2434a30.2086 30.2086 0 0 0 -30 30.2434v11.8973a15.9939 15.9939 0 0 0 -8 13.8593 15.994 15.994 0 0 0 8 13.8593v2.1407h48v104h208v-104h48v-2.1407a15.994 15.994 0 0 0 8-13.8593 15.9939 15.9939 0 0 0 -8-13.8593z" fill="#fdbf67"/><path d="m188 302.239h16v83.523h-16z" fill="#808080" transform="matrix(.958 -.287 .287 .958 -90.582 70.828)"/><path d="m274.239 336h83.523v16h-83.523z" fill="#808080" transform="matrix(.287 -.958 .958 .287 -104.295 547.823)"/><path d="m167.1553 384h-16v-14.1113l-7.1553-14.3111 14.31-7.1552 8 16a7.9952 7.9952 0 0 1 .8453 3.5776z" fill="#fdb34c"/><path d="m360.8447 384h-16v-16a7.9952 7.9952 0 0 1 .8448-3.5776l8-16 14.3105 7.1552-7.1553 14.3111z" fill="#fdb34c"/><g><rect fill="#333" height="80" rx="10" width="160" x="176" y="376"/><circle cx="256" cy="416" fill="#808080" r="48"/><circle cx="256" cy="416" fill="#f0f0f0" r="16"/></g><path d="m398 64h-35.5806c2.3548-15.871 5.5806-32 5.5806-32-15.9984 0-27.9976 7.9985-35.9976 15.9977a59.9091 59.9091 0 0 0 -48.0024-23.9977h-118a110 110 0 0 0 -110 110v66h392v-86a50 50 0 0 0 -50-50z" fill="#f15a57"/><path d="m442 176h-18l-24-24h-32c-32 0-56-32-56-32-8 40-64 72-64 72 3.3994-13.5979-1.8684-28.64-9.0513-41.4441a245.7215 245.7215 0 0 1 -26.8401 1.4441c-48.6236 0-100.1086-32-100.1086-32l-24 56h-18a30 30 0 0 0 -30 30v20a30 30 0 0 0 30 30h18v-4a60 60 0 0 0 60 60h216a60 60 0 0 0 60-60v4h18a30 30 0 0 0 30-30v-20a30 30 0 0 0 -30-30z" fill="#ffd4cf"/><g fill="#ae7069"><path d="m184 176a40.0451 40.0451 0 0 0 -40 40h16a24 24 0 0 1 48 0h16a40.0451 40.0451 0 0 0 -40-40z"/><path d="m328 176a40.0451 40.0451 0 0 0 -40 40h16a24 24 0 0 1 48 0h16a40.0451 40.0451 0 0 0 -40-40z"/><path d="m256 264a16.0183 16.0183 0 0 1 -16-16h-16a32 32 0 0 0 64 0h-16a16.0183 16.0183 0 0 1 -16 16z"/></g></g></svg>