<svg id="color" enable-background="new 0 0 24 24" height="512" viewBox="0 0 24 24" width="512" xmlns="http://www.w3.org/2000/svg"><path d="m21.296 0h-8.892c-.711 0-1.408.289-1.911.791l-9.702 9.702c-1.054 1.054-1.054 2.77 0 3.823l8.893 8.892c.527.528 1.219.792 1.911.792s1.385-.264 1.912-.792l9.702-9.701c.503-.503.792-1.2.792-1.911v-8.892c0-1.491-1.213-2.704-2.705-2.704z" fill="#ffc107"/><path d="m19.5 6c-.828 0-1.5-.672-1.5-1.5s.672-1.5 1.5-1.5c.829 0 1.5.672 1.5 1.5s-.671 1.5-1.5 1.5z" fill="#fff"/><g fill="#fafafa"><path d="m8.288 12.53c-.293-.293-.768-.293-1.061 0s-.293.768 0 1.061l1.621 1.621-3.029-.758c-.329-.087-.669.064-.835.358-.166.293-.116.661.123.899l3.535 3.536c.147.146.338.22.53.22s.384-.073.53-.22c.293-.293.293-.768 0-1.061l-1.621-1.621 3.03.758c.326.083.668-.064.835-.358.166-.293.116-.661-.123-.899z"/><path d="m14.298 12.53-1.591 1.591-.707-.707 1.591-1.591c.293-.293.293-.768 0-1.061s-.768-.293-1.061 0l-1.591 1.591-.708-.707 1.591-1.591c.293-.293.293-.768 0-1.061s-.768-.293-1.061 0l-2.122 2.121c-.141.141-.22.331-.22.53s.079.39.22.53l3.536 3.535c.146.146.338.22.53.22s.384-.073.53-.22l2.122-2.121c.293-.293.293-.768 0-1.061-.291-.291-.766-.291-1.059.002z"/><path d="m16.16 4.866c-.23-.345-.697-.439-1.04-.208-.345.229-.438.695-.208 1.04l1.429 2.145-.156-.067c-.281-.121-.609-.058-.826.159s-.28.544-.159.826l.067.155-2.144-1.429c-.344-.228-.81-.138-1.04.208-.23.345-.137.811.208 1.04l4.243 2.828c.126.084.271.126.416.126.171 0 .341-.059.48-.174.255-.212.341-.566.21-.872l-.322-.751.751.322c.305.131.66.047.872-.21.212-.255.231-.619.047-.896z"/></g><path d="m23.241.826-2.647 2.647c.252.269.406.63.406 1.027 0 .828-.671 1.5-1.5 1.5-.397 0-.758-.154-1.027-.407l-1.098 1.098 1.612 2.418c.184.276.165.641-.047.896-.145.176-.358.271-.576.271-.1 0-.201-.02-.296-.061l-.751-.322.322.751c.131.306.045.66-.21.872-.138.115-.309.174-.48.174-.145 0-.29-.042-.416-.126l-2.418-1.612-.687.688c.058.033.113.074.163.124.293.293.293.768 0 1.061l-1.591 1.589.707.707 1.591-1.591c.146-.146.338-.22.53-.22s.384.073.53.22c.293.293.293.768 0 1.061l-2.122 2.121c-.146.146-.338.22-.53.22s-.384-.073-.53-.22l-1.911-1.911-.354.354 1.911 1.911c.238.238.289.606.123.899-.135.239-.388.381-.652.381-.061 0-.122-.007-.183-.023l-3.03-.758 1.621 1.621c.293.293.293.768 0 1.061-.147.146-.338.22-.53.22s-.384-.073-.53-.22l-1.911-1.91-1.459 1.459 4.413 4.412c.527.528 1.219.792 1.911.792s1.385-.264 1.912-.792l9.702-9.701c.503-.503.792-1.2.792-1.911v-8.892c0-.729-.29-1.391-.76-1.878z" fill="#dea806"/><path d="m20.594 3.473-2.12 2.12c.268.253.629.407 1.026.407.829 0 1.5-.672 1.5-1.5 0-.397-.154-.758-.406-1.027z" fill="#dedede"/><path d="m9.912 14.155-3.182 3.182 1.911 1.911c.147.146.338.22.53.22s.384-.073.53-.22c.293-.293.293-.768 0-1.061l-1.621-1.621 3.03.758c.061.015.122.023.183.023.265 0 .517-.142.652-.381.166-.293.116-.661-.123-.899z" fill="#dadada"/><path d="m13.428 10.639-3.162 3.162 1.911 1.911c.146.146.338.22.53.22s.384-.073.53-.22l2.122-2.121c.293-.293.293-.768 0-1.061-.146-.146-.338-.22-.53-.22s-.384.073-.53.22l-1.591 1.591-.708-.707 1.591-1.591c.293-.293.293-.768 0-1.061-.05-.049-.105-.09-.163-.123z" fill="#dadada"/><path d="m15.232 8.835-.035.035.069.046zm1.062-1.062-.035.035.082.035z" fill="#dea806"/><path d="m17.376 6.691-1.082 1.082.047.07-.082-.035-1.028 1.028.035.081-.069-.047-1.082 1.082 2.418 1.612c.126.084.271.126.416.126.171 0 .341-.059.48-.174.255-.212.341-.566.21-.872l-.322-.751.751.322c.096.041.197.061.296.061.218 0 .43-.095.576-.271.212-.255.231-.619.047-.896z" fill="#dadada"/></svg>