<svg id="Capa_1" enable-background="new 0 0 512 512" height="512" viewBox="0 0 512 512" width="512" xmlns="http://www.w3.org/2000/svg"><g><g><g><g><g><path d="m185.422 331.306 52.014 180.663h-196.95c-6.243 0-11.054-5.511-10.209-11.703l11.693-85.484c3.255-23.828 19.893-43.669 42.783-51.045z" fill="#5b5555"/><path d="m471.513 511.969h-195.92l51.931-180.354 99.722 32.121c22.891 7.376 39.528 27.217 42.783 51.045l11.693 85.484c.845 6.193-3.966 11.704-10.209 11.704z" fill="#5b5555"/><g><path d="m256.003 347.288-70.099 60.821 29.911 103.891 80.385-.031 29.911-103.891z" fill="#e0d3ce"/></g><path d="m432.986 511.969h38.531c6.244 0 11.053-5.511 10.207-11.698l-11.693-85.494c-3.251-23.823-19.893-43.667-42.777-51.042l-27.122-8.733c9.364 9.429 15.655 21.817 17.531 35.516z" fill="#444"/><g><path d="m284.186 511.969-11.747-150.346h-32.876l-11.639 150.346z" fill="#21c1f8"/><path d="m284.185 511.969h-56.258l7.613-98.289 4.028-52.055h32.873l4.069 52.096z" fill="#21c1f8"/><path d="m276.51 413.721-20.511-19.028-20.459 18.987 4.028-52.055h32.873z" fill="#1faaee"/></g><g fill="#f8f3f1"><path d="m256.001 308.569v58.019l-56.155 52.095-24.234-84.223z"/><path d="m336.374 334.46-24.23 84.207-56.143-52.079v-58.019z"/></g><g><path d="m303.477 291.079v28.03c0 26.222-21.257 47.479-47.479 47.479-26.222 0-47.479-21.257-47.479-47.479v-28.03z" fill="#a34f41"/></g></g></g></g><path d="m336.083 511.969 42.297-53.774c2.323-2.954 2.196-7.148-.301-9.956l-21.942-24.667c-1.801-2.025-1.725-5.1.174-7.033l20.736-21.105c2.769-2.819 2.979-7.268.487-10.335l-41.156-50.636-51.081 177.506z" fill="#756f6f"/><path d="m133.617 458.195 42.297 53.774h50.786l-51.08-177.506-41.156 50.636c-2.492 3.066-2.283 7.516.487 10.335l20.736 21.104c1.9 1.933 1.976 5.008.174 7.033l-21.942 24.668c-2.499 2.807-2.626 7.002-.302 9.956z" fill="#756f6f"/><g fill="#fcc16d"><circle cx="317.899" cy="458.876" r="16.726"/><path d="m334.63 458.88c0 9.23-7.49 16.72-16.73 16.72-4.13 0-7.9-1.49-10.82-3.98 8.29-.99 14.71-8.04 14.71-16.6 0-5.11-2.29-9.68-5.91-12.74.66-.09 1.34-.13 2.02-.13 9.24 0 16.73 7.49 16.73 16.73z"/></g></g><g><g><path d="m381.712 183.731h-251.418v-87.599c0-53.092 43.039-96.132 96.131-96.132h59.155c53.092 0 96.132 43.04 96.132 96.132z" fill="#5b5555"/></g><g><path d="m381.712 96.137v87.596h-33.069v-87.596c.001-53.096-43.04-96.137-96.136-96.137h33.069c53.095 0 96.136 43.041 96.136 96.137z" fill="#444"/></g><g><g fill="#a34f41"><path d="m376.757 229.036c16.227 0 29.382-13.155 29.382-29.382s-13.155-29.382-29.382-29.382h-19.472v58.764z"/><path d="m135.249 229.036c-16.227 0-29.382-13.155-29.382-29.382s13.155-29.382 29.382-29.382h19.472v58.764z"/></g></g><path d="m364.01 168.732c1.239.977 1.961 2.467 1.961 4.044v50.773c0 56.268-49.232 108.56-109.972 108.56-60.729 0-109.962-52.292-109.962-108.56v-50.774c0-1.576.722-3.066 1.959-4.043l8.559-6.757c4.296-3.379 6.81-8.551 6.81-14.021v-68.456c0-21.566 20.153-37.465 41.127-32.445l48.081 11.507c2.252.539 4.594.541 6.846.002 7.987-1.91 28.665-6.855 48.105-11.504 20.972-5.015 41.119 10.884 41.119 32.447v68.45c0 5.47 2.503 10.642 6.799 14.021z" fill="#c86f5c"/><path d="m255.999 332.11c-16.988 0-33.079-4.09-47.44-11.219.237 6.737 1.896 13.125 4.677 18.863 13.753 5.192 28.103 7.809 42.763 7.809 14.659 0 29.01-2.617 42.763-7.798 2.781-5.738 4.44-12.125 4.677-18.873-14.361 7.128-30.452 11.218-47.44 11.218z" fill="#9b4338"/><path d="m364.01 168.732c1.239.977 1.961 2.467 1.961 4.044v50.773c0 56.268-49.232 108.56-109.972 108.56-4.007 0-7.963-.227-11.847-.67 55.166-6.243 98.125-55.331 98.125-107.891v-50.773c0-1.577-.723-3.068-1.961-4.044l-8.567-6.757c-4.296-3.379-6.799-8.551-6.799-14.021v-68.444c0-14.701-9.354-26.764-21.943-31.369 1.514-.361 3.018-.721 4.523-1.082 20.964-5.017 41.114 10.879 41.114 32.451v68.445c0 5.47 2.503 10.642 6.799 14.021z" fill="#ba5d4f"/><g><g><path d="m211.915 187.907c-4.268 0-7.726-3.459-7.726-7.726v-3.427c0-4.267 3.459-7.726 7.726-7.726s7.726 3.459 7.726 7.726v3.427c0 4.267-3.459 7.726-7.726 7.726z" fill="#444"/></g><g><path d="m300.09 187.907c-4.268 0-7.726-3.459-7.726-7.726v-3.427c0-4.267 3.459-7.726 7.726-7.726s7.726 3.459 7.726 7.726v3.427c0 4.267-3.458 7.726-7.726 7.726z" fill="#444"/></g></g></g><g><g><path d="m281.9 164.062c-2.211 0-4.406-.944-5.935-2.774-2.735-3.275-2.297-8.147.978-10.883.764-.637 18.98-15.487 45.631-6.712 4.053 1.335 6.257 5.702 4.923 9.756-1.335 4.052-5.706 6.257-9.756 4.922-18.598-6.124-30.772 3.795-30.892 3.896-1.446 1.206-3.203 1.795-4.949 1.795z" fill="#5b5555"/></g><g><path d="m230.099 164.062c-1.728 0-3.466-.576-4.903-1.758-.613-.491-12.751-9.921-30.938-3.934-4.051 1.335-8.42-.869-9.756-4.922-1.334-4.053.869-8.421 4.923-9.756 26.65-8.779 44.868 6.075 45.631 6.712 3.275 2.735 3.713 7.608.978 10.883-1.529 1.831-3.724 2.775-5.935 2.775z" fill="#5b5555"/></g></g><g><path d="m255.999 282.66c-9.54 0-18.945-.589-27.196-1.703-4.228-.571-7.193-4.462-6.623-8.691.57-4.23 4.467-7.19 8.691-6.623 7.577 1.023 16.267 1.564 25.128 1.564s17.55-.541 25.128-1.564c4.241-.569 8.12 2.394 8.691 6.623.57 4.229-2.394 8.12-6.623 8.691-8.251 1.114-17.655 1.703-27.196 1.703z" fill="#ba5d4f"/></g><g><path d="m258.82 307.465h-5.642c-4.268 0-7.726-3.459-7.726-7.726s3.459-7.726 7.726-7.726h5.642c4.268 0 7.726 3.459 7.726 7.726.001 4.267-3.458 7.726-7.726 7.726z" fill="#ba5d4f"/></g><g><path d="m256 228.751c-8.042 0-15.528-2.699-20.539-7.404-3.11-2.922-3.264-7.811-.342-10.922 2.921-3.11 7.81-3.264 10.922-.343 1.655 1.555 5.141 3.216 9.96 3.216 4.82 0 8.305-1.66 9.96-3.215 3.109-2.92 7.999-2.769 10.922.341 2.922 3.11 2.769 8-.342 10.922-5.01 4.705-12.497 7.405-20.541 7.405z" fill="#ba5d4f"/></g></g></svg>